<?xml version="1.0" encoding="UTF-8"?>
<svg version="1.1" xmlns="http://www.w3.org/2000/svg" width="460" height="460">
<path d="M0 0 C151.8 0 303.6 0 460 0 C460 151.8 460 303.6 460 460 C308.2 460 156.4 460 0 460 C0 308.2 0 156.4 0 0 Z " fill="#000000" transform="translate(0,0)"/>
<path d="M0 0 C2.8121136 1.82143992 5.56902227 3.71351763 8.32470703 5.61938477 C9.04529297 6.08344727 9.76587891 6.54750977 10.50830078 7.02563477 C28.54828556 18.91836416 37.85979154 41.49291957 42.32470703 61.61938477 C42.50122803 62.2672998 42.67774902 62.91521484 42.85961914 63.58276367 C47.15303254 82.38363224 40.90794373 104.33999462 30.9440918 120.29467773 C29.12265188 123.10679133 27.23057417 125.86370001 25.32470703 128.61938477 C24.86064453 129.3399707 24.39658203 130.06055664 23.91845703 130.80297852 C12.07005588 148.77572216 -10.56552584 158.28154783 -30.67529297 162.61938477 C-31.8721875 162.90942383 -31.8721875 162.90942383 -33.09326172 163.20532227 C-54.10684837 166.57512587 -76.20551849 160.34869622 -93.67529297 148.61938477 C-94.60470703 147.9993457 -95.53412109 147.37930664 -96.49169922 146.74047852 C-102.4484988 142.59908452 -107.28267105 138.38470104 -111.67529297 132.61938477 C-112.88185547 131.05510742 -112.88185547 131.05510742 -114.11279297 129.45922852 C-123.39090457 117.13936941 -128.44244167 104.60655182 -131.67529297 89.61938477 C-131.86865234 88.82145508 -132.06201172 88.02352539 -132.26123047 87.20141602 C-135.63103408 66.18782936 -129.40460443 44.08915924 -117.67529297 26.61938477 C-117.05525391 25.6899707 -116.43521484 24.76055664 -115.79638672 23.80297852 C-111.65499272 17.84617893 -107.44060924 13.01200669 -101.67529297 8.61938477 C-100.63244141 7.81500977 -99.58958984 7.01063477 -98.51513672 6.18188477 C-86.16676237 -3.11770172 -73.6608773 -8.0561682 -58.67529297 -11.38061523 C-58.02737793 -11.55713623 -57.37946289 -11.73365723 -56.71191406 -11.91552734 C-37.9110455 -16.20894075 -15.95468311 -9.96385193 0 0 Z " fill="#C69000" transform="translate(274.67529296875,154.380615234375)"/>
<path d="M0 0 C-2.66666667 5.33333333 -5.33333333 10.66666667 -8 16 C-9.18335938 15.73445313 -10.36671875 15.46890625 -11.5859375 15.1953125 C-13.18227862 14.83848331 -14.77863354 14.4817158 -16.375 14.125 C-17.14972656 13.95097656 -17.92445313 13.77695313 -18.72265625 13.59765625 C-20.33006616 13.238978 -21.9387749 12.88608204 -23.54858398 12.53833008 C-25.13072523 12.19089243 -26.70894483 11.82483108 -28.28149414 11.4362793 C-36.02043746 9.64428146 -43.78305658 9.55901142 -51.6875 9.5625 C-52.41243652 9.56176483 -53.13737305 9.56102966 -53.88427734 9.56027222 C-85.56771519 9.64428661 -114.45517171 21.0647141 -139 41 C-139.66902344 41.52851562 -140.33804688 42.05703125 -141.02734375 42.6015625 C-143.95263328 44.92774432 -143.95263328 44.92774432 -146 48 C-146.66 48 -147.32 48 -148 48 C-148 48.66 -148 49.32 -148 50 C-149.16119181 51.19534451 -150.32847437 52.38529073 -151.5234375 53.546875 C-161.97448039 63.83202832 -168.97167039 77.0340813 -175.14501953 90.18798828 C-175.88643735 91.75931982 -176.65742204 93.31663543 -177.43359375 94.87109375 C-191.24424532 124.51451721 -188.57653096 160.07873245 -178.6171875 190.3046875 C-173.15536758 205.06720648 -164.88394283 218.80321454 -155 231 C-154.54109375 231.59941406 -154.0821875 232.19882812 -153.609375 232.81640625 C-150.80512553 236.39649807 -147.5351666 239.29485874 -144.08203125 242.22265625 C-142.76337038 243.34834236 -141.46571134 244.49951933 -140.19921875 245.68359375 C-130.19769232 254.95695765 -118.07678337 261.38895652 -105.81201172 267.14501953 C-104.24068018 267.88643735 -102.68336457 268.65742204 -101.12890625 269.43359375 C-71.48548279 283.24424532 -35.92126755 280.57653096 -5.6953125 270.6171875 C9.06720648 265.15536758 22.80321454 256.88394283 35 247 C35.59941406 246.54109375 36.19882812 246.0821875 36.81640625 245.609375 C40.39649807 242.80512553 43.29485874 239.5351666 46.22265625 236.08203125 C47.34834236 234.76337038 48.49951933 233.46571134 49.68359375 232.19921875 C59.40043299 221.71939444 66.07133922 208.8933982 72 196 C72.70962891 194.46859375 72.70962891 194.46859375 73.43359375 192.90625 C86.24263987 162.57953645 85.97422287 125.62722278 73.8125 95.1875 C70.82270094 88.14011651 67.09537864 81.46828735 63.20043945 74.88549805 C62.7849585 74.17433838 62.36947754 73.46317871 61.94140625 72.73046875 C61.56701416 72.10551514 61.19262207 71.48056152 60.80688477 70.83666992 C60 69 60 69 60 65 C60.61875 64.7525 61.2375 64.505 61.875 64.25 C64.42503925 62.74997691 64.76222348 61.6302751 66 59 C67.29470975 57.62913085 68.62150897 56.28659163 70 55 C73.43147207 56.14382402 73.71822986 56.68339276 75.5234375 59.6484375 C75.98476074 60.40092773 76.44608398 61.15341797 76.92138672 61.92871094 C77.4010791 62.73598633 77.88077148 63.54326172 78.375 64.375 C78.86887207 65.19774414 79.36274414 66.02048828 79.87158203 66.86816406 C85.96318352 77.14407955 90.17370541 87.69383091 94 99 C94.433125 100.22783203 94.433125 100.22783203 94.875 101.48046875 C107.28495388 139.03350626 99.69854435 180.68481563 83.22070312 215.58300781 C77.95726764 226.00461008 70.60584264 235.20532228 63 244 C62.30519531 244.82886719 61.61039062 245.65773438 60.89453125 246.51171875 C51.48512258 257.42937508 40.11814154 266.2689492 28 274 C27.26023926 274.47276367 26.52047852 274.94552734 25.75830078 275.43261719 C19.80108537 279.1305226 13.75781976 282.0320001 7.25 284.625 C6.28408936 285.01252441 5.31817871 285.40004883 4.32299805 285.79931641 C-3.02884779 288.70367346 -10.26842034 291.28187119 -18 293 C-18.63212402 293.14663086 -19.26424805 293.29326172 -19.91552734 293.44433594 C-42.4879517 298.48451713 -67.68222062 297.80804884 -90 292 C-90.68739258 291.82919922 -91.37478516 291.65839844 -92.08300781 291.48242188 C-99.39861431 289.64902663 -106.24731543 287.33981308 -113 284 C-114.22767892 283.41627602 -115.4555627 282.83298281 -116.68359375 282.25 C-150.23592318 266.11845257 -178.72663595 238.1316243 -192.625 203.25 C-193.01252441 202.28408936 -193.40004883 201.31817871 -193.79931641 200.32299805 C-196.70367346 192.97115221 -199.28187119 185.73157966 -201 178 C-201.14663086 177.36787598 -201.29326172 176.73575195 -201.44433594 176.08447266 C-206.48451713 153.5120483 -205.80804884 128.31777938 -200 106 C-199.82919922 105.31260742 -199.65839844 104.62521484 -199.48242188 103.91699219 C-197.64902663 96.60138569 -195.33981308 89.75268457 -192 83 C-191.41627602 81.77232108 -190.83298281 80.5444373 -190.25 79.31640625 C-173.86556521 45.23809134 -147.17334378 19.70028324 -113 4 C-111.42412109 3.27490234 -111.42412109 3.27490234 -109.81640625 2.53515625 C-74.78825653 -12.76930757 -35.87472448 -10.8438534 0 0 Z " fill="#FBEF4F" transform="translate(282,86)"/>
<path d="M0 0 C7.1300629 4.10170285 12.76398839 8.9331524 15.83984375 16.72265625 C17.87773058 25.1033151 17.61884599 34.38181084 13.87890625 42.2265625 C9.06328434 49.94792794 2.28160625 55.03052657 -6.5 57.4375 C-15.37160182 58.68047309 -22.54332709 58.03715351 -30.19140625 53.21875 C-33.5314871 50.64163178 -36.10124342 47.89598124 -38.5 44.4375 C-39.0775 43.65375 -39.655 42.87 -40.25 42.0625 C-44.33056446 33.49331464 -44.19376934 24.31511998 -41.4375 15.3125 C-38.18955643 7.70793982 -31.92423514 1.56579301 -24.39453125 -1.7421875 C-16.02669397 -4.11363936 -7.87844672 -3.67265937 0 0 Z " fill="#FCBF06" transform="translate(329.5,87.5625)"/>
<path d="M0 0 C2.64 0 5.28 0 8 0 C10.64 5.28 13.28 10.56 16 16 C18.0894988 12.8657518 19.56445886 9.73890554 21.125 6.3125 C21.66382813 5.13300781 22.20265625 3.95351562 22.7578125 2.73828125 C23.16773438 1.83464844 23.57765625 0.93101562 24 0 C26.97 0 29.94 0 33 0 C33 9.57 33 19.14 33 29 C31.02 29 29.04 29 27 29 C26.67 23.39 26.34 17.78 26 12 C25.05125 13.753125 24.1025 15.50625 23.125 17.3125 C21.50546052 20.3051273 19.88856668 23.16714998 18 26 C16.68 26 15.36 26 14 26 C10.04 17.585 10.04 17.585 6 9 C5.67 15.6 5.34 22.2 5 29 C3.35 29 1.7 29 0 29 C0 19.43 0 9.86 0 0 Z " fill="#FAEA48" transform="translate(177,192)"/>
<path d="M0 0 C1.98 0 3.96 0 6 0 C6 3.96 6 7.92 6 12 C10.29 12 14.58 12 19 12 C19 8.04 19 4.08 19 0 C20.98 0 22.96 0 25 0 C25.02465881 3.96930989 25.04284023 7.93859034 25.05493164 11.90795898 C25.05997057 13.25920386 25.06680177 14.61044326 25.07543945 15.96166992 C25.08752419 17.90020434 25.09269828 19.838778 25.09765625 21.77734375 C25.10551147 23.52905884 25.10551147 23.52905884 25.11352539 25.31616211 C25 28 25 28 24 29 C22.35 29 20.7 29 19 29 C19 25.04 19 21.08 19 17 C14.71 17 10.42 17 6 17 C6 20.96 6 24.92 6 29 C4.02 29 2.04 29 0 29 C0 19.43 0 9.86 0 0 Z " fill="#F6E343" transform="translate(181,241)"/>
<path d="M0 0 C3.89772727 3.34090909 3.89772727 3.34090909 4.625 6.25 C4.54435219 11.330812 4.4491697 13.2816006 1.125 17.1875 C-0.1125 18.2084375 -0.1125 18.2084375 -1.375 19.25 C-1.705 19.58 -2.035 19.91 -2.375 20.25 C-6.62502506 20.70661426 -10.33105441 20.67202056 -14.3125 19.0625 C-17.80779456 15.99087751 -18.28088626 13.30407388 -18.6875 8.75 C-18.34997424 4.96971144 -17.72967951 3.19334939 -15.375 0.25 C-10.71523132 -3.37426453 -4.87179559 -2.52611623 0 0 Z " fill="#FAEA49" transform="translate(276.375,249.75)"/>
<path d="M0 0 C2.87029869 1.79393668 4.49131638 2.98263276 6 6 C6.41948626 9.3858534 6.49414522 12.62068431 6 16 C3.5625 19.0625 3.5625 19.0625 1 21 C0.67 21.33 0.34 21.66 0 22 C-3.78103961 22.55720584 -7.47978241 22.84003776 -10.89453125 20.953125 C-13.71925767 18.61636835 -15.76535088 16.70623428 -16.2734375 13.01171875 C-16.46972622 8.51972685 -16.51482633 6.65030695 -13.625 3 C-9.15472732 -0.40592204 -5.52534445 -0.71571819 0 0 Z " fill="#FCEE4C" transform="translate(278,199)"/>
<path d="M0 0 C1.625 1.1875 1.625 1.1875 3.625 4.1875 C3.625 6.8275 3.625 9.4675 3.625 12.1875 C-1.655 12.1875 -6.935 12.1875 -12.375 12.1875 C-9.03652549 16.39779189 -9.03652549 16.39779189 -6.015625 16.359375 C-5.22671875 16.22015625 -4.4378125 16.0809375 -3.625 15.9375 C-2.82578125 15.80859375 -2.0265625 15.6796875 -1.203125 15.546875 C-0.59984375 15.42828125 0.0034375 15.3096875 0.625 15.1875 C1.285 16.1775 1.945 17.1675 2.625 18.1875 C-0.00427396 20.93109022 -2.14133974 21.45236519 -5.8125 21.5625 C-9.75401943 21.41987923 -12.29205186 20.80333478 -15.375 18.1875 C-17.1941228 15.22347474 -17.62608595 13.01926347 -17.5625 9.5625 C-17.55283203 8.39847656 -17.55283203 8.39847656 -17.54296875 7.2109375 C-17.375 5.1875 -17.375 5.1875 -16.375 3.1875 C-15.715 3.1875 -15.055 3.1875 -14.375 3.1875 C-14.045 2.1975 -13.715 1.2075 -13.375 0.1875 C-8.93421344 -1.29276219 -4.43207797 -1.5162372 0 0 Z " fill="#FBEC4A" transform="translate(232.375,199.8125)"/>
<path d="M0 0 C2.0625 1.6875 2.0625 1.6875 3.0625 4.6875 C3.0625 6.9975 3.0625 9.3075 3.0625 11.6875 C-2.2175 11.6875 -7.4975 11.6875 -12.9375 11.6875 C-12.9375 12.6775 -12.9375 13.6675 -12.9375 14.6875 C-8.180819 15.41309541 -4.652766 15.79697435 0.0625 14.6875 C0.7225 15.0175 1.3825 15.3475 2.0625 15.6875 C2.0625 16.3475 2.0625 17.0075 2.0625 17.6875 C-2.78527321 20.06191953 -6.42243076 21.5045473 -11.9375 20.6875 C-14.8125 18.25 -14.8125 18.25 -16.9375 15.6875 C-17.2675 15.3575 -17.5975 15.0275 -17.9375 14.6875 C-18.48815056 9.81288851 -18.65804129 5.90496633 -16.125 1.625 C-11.53626686 -2.43930649 -5.38312075 -2.40522416 0 0 Z " fill="#FBED4B" transform="translate(228.9375,249.3125)"/>
<path d="M0 0 C1.65 0 3.3 0 5 0 C5 10.23 5 20.46 5 31 C3.35 31 1.7 31 0 31 C0 20.77 0 10.54 0 0 Z " fill="#FAEA49" transform="translate(248,239)"/>
<path d="M0 0 C1.65 0 3.3 0 5 0 C5 10.23 5 20.46 5 31 C3.35 31 1.7 31 0 31 C0 20.77 0 10.54 0 0 Z " fill="#FAEB49" transform="translate(241,190)"/>
<path d="M0 0 C1.65 0 3.3 0 5 0 C5 9.9 5 19.8 5 30 C3.35 30 1.7 30 0 30 C0 20.1 0 10.2 0 0 Z " fill="#FBED4B" transform="translate(237,239)"/>
<path d="M0 0 C1.65 0 3.3 0 5 0 C5 9.9 5 19.8 5 30 C3.35 30 1.7 30 0 30 C0 20.1 0 10.2 0 0 Z " fill="#FCEE4C" transform="translate(252,191)"/>
<path d="M0 0 C2.62136844 2.4144183 3.79752546 4.07761597 4.5625 7.5625 C4 10 4 10 1.875 12.375 C-1 14 -1 14 -4.1875 13.9375 C-7 13 -7 13 -9 10 C-9.54170249 3.93293207 -9.54170249 3.93293207 -7.875 1.0625 C-5.0300175 -0.54965675 -3.2088071 -0.52388687 0 0 Z " fill="#CA9705" transform="translate(276,203)"/>
<path d="M0 0 C1.875 1 1.875 1 3 3 C3.46541727 5.75802827 3.50954515 8.2461661 3 11 C1.375 13.0625 1.375 13.0625 -1 14 C-4.125 13.875 -4.125 13.875 -7 13 C-9.46324069 9.30513897 -9.38991688 7.36706908 -9 3 C-6.84332735 -0.71426957 -4.0099826 -0.50124783 0 0 Z " fill="#C89402" transform="translate(272,252)"/>
<path d="M0 0 C2 2 2 2 2 5 C-1.63 5 -5.26 5 -9 5 C-9 4.01 -9 3.02 -9 2 C-5.54754176 -0.30163882 -4.05261287 -0.34490322 0 0 Z " fill="#C79201" transform="translate(225,252)"/>
<path d="M0 0 C3.0625 0.1875 3.0625 0.1875 5.0625 2.1875 C5.0625 3.1775 5.0625 4.1675 5.0625 5.1875 C1.4325 5.1875 -2.1975 5.1875 -5.9375 5.1875 C-3.45398352 0.22046703 -3.45398352 0.22046703 0 0 Z " fill="#C99604" transform="translate(225.9375,202.8125)"/>
</svg>
